/home/xinjie/Newton_Connection/Newton/phystwin_bridge/tools/core/newton_import_ir.py:1209: UserWarning: tabletop_table_box: PhysTwin ground collide_elas is present in IR, but native Newton SemiImplicit has no direct 1-to-1 restitution field for particle-vs-shape contacts. Ground bounce will therefore use native Newton ground ke/kd/kf defaults unless --ground-restitution-mode=approximate-native is selected.
  warnings.warn(message)
ffmpeg version 6.1.1-3ubuntu5+esm7 Copyright (c) 2000-2023 the FFmpeg developers
  built with gcc 13 (Ubuntu 13.3.0-6ubuntu2~24.04)
  configuration: --prefix=/usr --extra-version=3ubuntu5+esm7 --toolchain=hardened --libdir=/usr/lib/x86_64-linux-gnu --incdir=/usr/include/x86_64-linux-gnu --arch=amd64 --enable-gpl --disable-stripping --disable-omx --enable-gnutls --enable-libaom --enable-libass --enable-libbs2b --enable-libcaca --enable-libcdio --enable-libcodec2 --enable-libdav1d --enable-libflite --enable-libfontconfig --enable-libfreetype --enable-libfribidi --enable-libglslang --enable-libgme --enable-libgsm --enable-libharfbuzz --enable-libmp3lame --enable-libmysofa --enable-libopenjpeg --enable-libopenmpt --enable-libopus --enable-librubberband --enable-libshine --enable-libsnappy --enable-libsoxr --enable-libspeex --enable-libtheora --enable-libtwolame --enable-libvidstab --enable-libvorbis --enable-libvpx --enable-libwebp --enable-libx265 --enable-libxml2 --enable-libxvid --enable-libzimg --enable-openal --enable-opencl --enable-opengl --disable-sndio --enable-libvpl --disable-libmfx --enable-libdc1394 --enable-libdrm --enable-libiec61883 --enable-chromaprint --enable-frei0r --enable-ladspa --enable-libbluray --enable-libjack --enable-libpulse --enable-librabbitmq --enable-librist --enable-libsrt --enable-libssh --enable-libsvtav1 --enable-libx264 --enable-libzmq --enable-libzvbi --enable-lv2 --enable-sdl2 --enable-libplacebo --enable-librav1e --enable-pocketsphinx --enable-librsvg --enable-libjxl --enable-shared
  libavutil      58. 29.100 / 58. 29.100
  libavcodec     60. 31.102 / 60. 31.102
  libavformat    60. 16.100 / 60. 16.100
  libavdevice    60.  3.100 / 60.  3.100
  libavfilter     9. 12.100 /  9. 12.100
  libswscale      7.  5.100 /  7.  5.100
  libswresample   4. 12.100 /  4. 12.100
  libpostproc    57.  3.100 / 57.  3.100
Input #0, rawvideo, from 'fd:':
  Duration: N/A, start: 0.000000, bitrate: 663552 kb/s
  Stream #0:0: Video: rawvideo (RGB[24] / 0x18424752), rgb24, 1280x720, 663552 kb/s, 30 tbr, 30 tbn
Stream mapping:
  Stream #0:0 -> #0:0 (rawvideo (native) -> h264 (libx264))
[libx264 @ 0x61e7305ce480] using cpu capabilities: MMX2 SSE2Fast SSSE3 SSE4.2 AVX FMA3 BMI2 AVX2
[libx264 @ 0x61e7305ce480] profile High, level 3.1, 4:2:0, 8-bit
[libx264 @ 0x61e7305ce480] 264 - core 164 r3108 31e19f9 - H.264/MPEG-4 AVC codec - Copyleft 2003-2023 - http://www.videolan.org/x264.html - options: cabac=1 ref=3 deblock=1:0:0 analyse=0x3:0x113 me=hex subme=7 psy=1 psy_rd=1.00:0.00 mixed_ref=1 me_range=16 chroma_me=1 trellis=1 8x8dct=1 cqm=0 deadzone=21,11 fast_pskip=1 chroma_qp_offset=-2 threads=22 lookahead_threads=3 sliced_threads=0 nr=0 decimate=1 interlaced=0 bluray_compat=0 constrained_intra=0 bframes=3 b_pyramid=2 b_adapt=1 b_bias=0 direct=1 weightb=1 open_gop=0 weightp=2 keyint=250 keyint_min=25 scenecut=40 intra_refresh=0 rc_lookahead=40 rc=crf mbtree=1 crf=18.0 qcomp=0.60 qpmin=0 qpmax=69 qpstep=4 ip_ratio=1.40 aq=1:1.00
Output #0, mp4, to '/home/xinjie/Newton_Connection/Newton/phystwin_bridge/results/robot_rope_franka/candidates/20260401_062755_fixeddt_c01/presentation/work/robot_rope_tabletop_hero.mp4':
  Metadata:
    encoder         : Lavf60.16.100
  Stream #0:0: Video: h264 (avc1 / 0x31637661), yuv420p(tv, progressive), 1280x720, q=2-31, 30 fps, 15360 tbn
    Metadata:
      encoder         : Lavc60.31.102 libx264
    Side data:
      cpb: bitrate max/min/avg: 0/0/0 buffer size: 0 vbv_delay: N/A
frame=    0 fps=0.0 q=0.0 size=       0kB time=N/A bitrate=N/A speed=N/A    frame=   32 fps=0.0 q=24.0 size=       0kB time=00:00:01.00 bitrate=   0.4kbits/s speed=1.99x    [out#0/mp4 @ 0x61e7305ccc80] video:169kB audio:0kB subtitle:0kB other streams:0kB global headers:0kB muxing overhead: 1.321817%
frame=  119 fps=0.0 q=-1.0 Lsize=     171kB time=00:00:03.86 bitrate= 362.9kbits/s speed=6.12x    
[libx264 @ 0x61e7305ce480] frame I:1     Avg QP: 9.01  size: 66680
[libx264 @ 0x61e7305ce480] frame P:30    Avg QP:13.82  size:  2418
[libx264 @ 0x61e7305ce480] frame B:88    Avg QP:14.54  size:   377
[libx264 @ 0x61e7305ce480] consecutive B-frames:  0.8%  1.7%  0.0% 97.5%
[libx264 @ 0x61e7305ce480] mb I  I16..4: 46.6% 21.8% 31.6%
[libx264 @ 0x61e7305ce480] mb P  I16..4:  0.1%  0.1%  0.1%  P16..4:  2.1%  0.9%  0.6%  0.0%  0.0%    skip:96.1%
[libx264 @ 0x61e7305ce480] mb B  I16..4:  0.0%  0.0%  0.0%  B16..8:  1.7%  0.3%  0.1%  direct: 0.1%  skip:97.8%  L0:47.7% L1:46.1% BI: 6.2%
[libx264 @ 0x61e7305ce480] 8x8 transform intra:24.4% inter:24.2%
[libx264 @ 0x61e7305ce480] coded y,uvDC,uvAC intra: 28.9% 43.9% 39.9% inter: 0.5% 0.2% 0.1%
[libx264 @ 0x61e7305ce480] i16 v,h,dc,p: 89%  4%  6%  1%
[libx264 @ 0x61e7305ce480] i8 v,h,dc,ddl,ddr,vr,hd,vl,hu: 32% 17% 30%  4%  2%  4%  3%  2%  6%
[libx264 @ 0x61e7305ce480] i4 v,h,dc,ddl,ddr,vr,hd,vl,hu: 23% 32% 18%  3%  4%  4%  5%  2%  8%
[libx264 @ 0x61e7305ce480] i8c dc,h,v,p: 72% 15%  9%  4%
[libx264 @ 0x61e7305ce480] Weighted P-Frames: Y:0.0% UV:0.0%
[libx264 @ 0x61e7305ce480] ref P L0: 75.9%  4.5% 13.3%  6.4%
[libx264 @ 0x61e7305ce480] ref B L0: 61.8% 35.0%  3.2%
[libx264 @ 0x61e7305ce480] ref B L1: 93.2%  6.8%
[libx264 @ 0x61e7305ce480] kb/s:347.71
/home/xinjie/Newton_Connection/Newton/phystwin_bridge/tools/core/newton_import_ir.py:1209: UserWarning: tabletop_table_box: PhysTwin ground collide_elas is present in IR, but native Newton SemiImplicit has no direct 1-to-1 restitution field for particle-vs-shape contacts. Ground bounce will therefore use native Newton ground ke/kd/kf defaults unless --ground-restitution-mode=approximate-native is selected.
  warnings.warn(message)
ffmpeg version 6.1.1-3ubuntu5+esm7 Copyright (c) 2000-2023 the FFmpeg developers
  built with gcc 13 (Ubuntu 13.3.0-6ubuntu2~24.04)
  configuration: --prefix=/usr --extra-version=3ubuntu5+esm7 --toolchain=hardened --libdir=/usr/lib/x86_64-linux-gnu --incdir=/usr/include/x86_64-linux-gnu --arch=amd64 --enable-gpl --disable-stripping --disable-omx --enable-gnutls --enable-libaom --enable-libass --enable-libbs2b --enable-libcaca --enable-libcdio --enable-libcodec2 --enable-libdav1d --enable-libflite --enable-libfontconfig --enable-libfreetype --enable-libfribidi --enable-libglslang --enable-libgme --enable-libgsm --enable-libharfbuzz --enable-libmp3lame --enable-libmysofa --enable-libopenjpeg --enable-libopenmpt --enable-libopus --enable-librubberband --enable-libshine --enable-libsnappy --enable-libsoxr --enable-libspeex --enable-libtheora --enable-libtwolame --enable-libvidstab --enable-libvorbis --enable-libvpx --enable-libwebp --enable-libx265 --enable-libxml2 --enable-libxvid --enable-libzimg --enable-openal --enable-opencl --enable-opengl --disable-sndio --enable-libvpl --disable-libmfx --enable-libdc1394 --enable-libdrm --enable-libiec61883 --enable-chromaprint --enable-frei0r --enable-ladspa --enable-libbluray --enable-libjack --enable-libpulse --enable-librabbitmq --enable-librist --enable-libsrt --enable-libssh --enable-libsvtav1 --enable-libx264 --enable-libzmq --enable-libzvbi --enable-lv2 --enable-sdl2 --enable-libplacebo --enable-librav1e --enable-pocketsphinx --enable-librsvg --enable-libjxl --enable-shared
  libavutil      58. 29.100 / 58. 29.100
  libavcodec     60. 31.102 / 60. 31.102
  libavformat    60. 16.100 / 60. 16.100
  libavdevice    60.  3.100 / 60.  3.100
  libavfilter     9. 12.100 /  9. 12.100
  libswscale      7.  5.100 /  7.  5.100
  libswresample   4. 12.100 /  4. 12.100
  libpostproc    57.  3.100 / 57.  3.100
Input #0, rawvideo, from 'fd:':
  Duration: N/A, start: 0.000000, bitrate: 663552 kb/s
  Stream #0:0: Video: rawvideo (RGB[24] / 0x18424752), rgb24, 1280x720, 663552 kb/s, 30 tbr, 30 tbn
Stream mapping:
  Stream #0:0 -> #0:0 (rawvideo (native) -> h264 (libx264))
[libx264 @ 0x63256557e480] using cpu capabilities: MMX2 SSE2Fast SSSE3 SSE4.2 AVX FMA3 BMI2 AVX2
[libx264 @ 0x63256557e480] profile High, level 3.1, 4:2:0, 8-bit
[libx264 @ 0x63256557e480] 264 - core 164 r3108 31e19f9 - H.264/MPEG-4 AVC codec - Copyleft 2003-2023 - http://www.videolan.org/x264.html - options: cabac=1 ref=3 deblock=1:0:0 analyse=0x3:0x113 me=hex subme=7 psy=1 psy_rd=1.00:0.00 mixed_ref=1 me_range=16 chroma_me=1 trellis=1 8x8dct=1 cqm=0 deadzone=21,11 fast_pskip=1 chroma_qp_offset=-2 threads=22 lookahead_threads=3 sliced_threads=0 nr=0 decimate=1 interlaced=0 bluray_compat=0 constrained_intra=0 bframes=3 b_pyramid=2 b_adapt=1 b_bias=0 direct=1 weightb=1 open_gop=0 weightp=2 keyint=250 keyint_min=25 scenecut=40 intra_refresh=0 rc_lookahead=40 rc=crf mbtree=1 crf=18.0 qcomp=0.60 qpmin=0 qpmax=69 qpstep=4 ip_ratio=1.40 aq=1:1.00
Output #0, mp4, to '/home/xinjie/Newton_Connection/Newton/phystwin_bridge/results/robot_rope_franka/candidates/20260401_062755_fixeddt_c01/debug/work/robot_rope_tabletop_hero_debug.mp4':
  Metadata:
    encoder         : Lavf60.16.100
  Stream #0:0: Video: h264 (avc1 / 0x31637661), yuv420p(tv, progressive), 1280x720, q=2-31, 30 fps, 15360 tbn
    Metadata:
      encoder         : Lavc60.31.102 libx264
    Side data:
      cpb: bitrate max/min/avg: 0/0/0 buffer size: 0 vbv_delay: N/A
frame=    0 fps=0.0 q=0.0 size=       0kB time=N/A bitrate=N/A speed=N/A    frame=    0 fps=0.0 q=0.0 size=       0kB time=N/A bitrate=N/A speed=N/A    frame=   29 fps= 29 q=24.0 size=       0kB time=00:00:00.90 bitrate=   0.4kbits/s speed=0.895x    [out#0/mp4 @ 0x63256557cc80] video:218kB audio:0kB subtitle:0kB other streams:0kB global headers:0kB muxing overhead: 1.016482%
frame=  119 fps= 95 q=-1.0 Lsize=     220kB time=00:00:03.86 bitrate= 467.1kbits/s speed= 3.1x    
[libx264 @ 0x63256557e480] frame I:1     Avg QP:12.37  size: 63345
[libx264 @ 0x63256557e480] frame P:30    Avg QP:15.88  size:  3500
[libx264 @ 0x63256557e480] frame B:88    Avg QP:23.40  size:   619
[libx264 @ 0x63256557e480] consecutive B-frames:  0.8%  0.0%  5.0% 94.1%
[libx264 @ 0x63256557e480] mb I  I16..4: 30.3% 42.5% 27.2%
[libx264 @ 0x63256557e480] mb P  I16..4:  0.1%  0.2%  0.2%  P16..4:  2.9%  1.0%  0.9%  0.0%  0.0%    skip:94.7%
[libx264 @ 0x63256557e480] mb B  I16..4:  0.0%  0.0%  0.0%  B16..8:  2.4%  0.4%  0.2%  direct: 0.1%  skip:96.8%  L0:44.4% L1:50.1% BI: 5.5%
[libx264 @ 0x63256557e480] 8x8 transform intra:42.7% inter:24.7%
[libx264 @ 0x63256557e480] coded y,uvDC,uvAC intra: 25.7% 26.1% 19.6% inter: 0.7% 0.4% 0.1%
[libx264 @ 0x63256557e480] i16 v,h,dc,p: 80% 15%  3%  2%
[libx264 @ 0x63256557e480] i8 v,h,dc,ddl,ddr,vr,hd,vl,hu: 21% 17% 55%  1%  1%  1%  1%  1%  3%
[libx264 @ 0x63256557e480] i4 v,h,dc,ddl,ddr,vr,hd,vl,hu: 25% 30% 14%  5%  5%  4%  5%  5%  7%
[libx264 @ 0x63256557e480] i8c dc,h,v,p: 72% 19%  6%  2%
[libx264 @ 0x63256557e480] Weighted P-Frames: Y:0.0% UV:0.0%
[libx264 @ 0x63256557e480] ref P L0: 72.9%  5.1% 14.8%  7.2%
[libx264 @ 0x63256557e480] ref B L0: 71.1% 24.9%  4.0%
[libx264 @ 0x63256557e480] ref B L1: 93.8%  6.2%
[libx264 @ 0x63256557e480] kb/s:449.40
/home/xinjie/Newton_Connection/Newton/phystwin_bridge/tools/core/newton_import_ir.py:1209: UserWarning: tabletop_table_box: PhysTwin ground collide_elas is present in IR, but native Newton SemiImplicit has no direct 1-to-1 restitution field for particle-vs-shape contacts. Ground bounce will therefore use native Newton ground ke/kd/kf defaults unless --ground-restitution-mode=approximate-native is selected.
  warnings.warn(message)
ffmpeg version 6.1.1-3ubuntu5+esm7 Copyright (c) 2000-2023 the FFmpeg developers
  built with gcc 13 (Ubuntu 13.3.0-6ubuntu2~24.04)
  configuration: --prefix=/usr --extra-version=3ubuntu5+esm7 --toolchain=hardened --libdir=/usr/lib/x86_64-linux-gnu --incdir=/usr/include/x86_64-linux-gnu --arch=amd64 --enable-gpl --disable-stripping --disable-omx --enable-gnutls --enable-libaom --enable-libass --enable-libbs2b --enable-libcaca --enable-libcdio --enable-libcodec2 --enable-libdav1d --enable-libflite --enable-libfontconfig --enable-libfreetype --enable-libfribidi --enable-libglslang --enable-libgme --enable-libgsm --enable-libharfbuzz --enable-libmp3lame --enable-libmysofa --enable-libopenjpeg --enable-libopenmpt --enable-libopus --enable-librubberband --enable-libshine --enable-libsnappy --enable-libsoxr --enable-libspeex --enable-libtheora --enable-libtwolame --enable-libvidstab --enable-libvorbis --enable-libvpx --enable-libwebp --enable-libx265 --enable-libxml2 --enable-libxvid --enable-libzimg --enable-openal --enable-opencl --enable-opengl --disable-sndio --enable-libvpl --disable-libmfx --enable-libdc1394 --enable-libdrm --enable-libiec61883 --enable-chromaprint --enable-frei0r --enable-ladspa --enable-libbluray --enable-libjack --enable-libpulse --enable-librabbitmq --enable-librist --enable-libsrt --enable-libssh --enable-libsvtav1 --enable-libx264 --enable-libzmq --enable-libzvbi --enable-lv2 --enable-sdl2 --enable-libplacebo --enable-librav1e --enable-pocketsphinx --enable-librsvg --enable-libjxl --enable-shared
  libavutil      58. 29.100 / 58. 29.100
  libavcodec     60. 31.102 / 60. 31.102
  libavformat    60. 16.100 / 60. 16.100
  libavdevice    60.  3.100 / 60.  3.100
  libavfilter     9. 12.100 /  9. 12.100
  libswscale      7.  5.100 /  7.  5.100
  libswresample   4. 12.100 /  4. 12.100
  libpostproc    57.  3.100 / 57.  3.100
Input #0, rawvideo, from 'fd:':
  Duration: N/A, start: 0.000000, bitrate: 663552 kb/s
  Stream #0:0: Video: rawvideo (RGB[24] / 0x18424752), rgb24, 1280x720, 663552 kb/s, 30 tbr, 30 tbn
Stream mapping:
  Stream #0:0 -> #0:0 (rawvideo (native) -> h264 (libx264))
[libx264 @ 0x60ee2f212480] using cpu capabilities: MMX2 SSE2Fast SSSE3 SSE4.2 AVX FMA3 BMI2 AVX2
[libx264 @ 0x60ee2f212480] profile High, level 3.1, 4:2:0, 8-bit
[libx264 @ 0x60ee2f212480] 264 - core 164 r3108 31e19f9 - H.264/MPEG-4 AVC codec - Copyleft 2003-2023 - http://www.videolan.org/x264.html - options: cabac=1 ref=3 deblock=1:0:0 analyse=0x3:0x113 me=hex subme=7 psy=1 psy_rd=1.00:0.00 mixed_ref=1 me_range=16 chroma_me=1 trellis=1 8x8dct=1 cqm=0 deadzone=21,11 fast_pskip=1 chroma_qp_offset=-2 threads=22 lookahead_threads=3 sliced_threads=0 nr=0 decimate=1 interlaced=0 bluray_compat=0 constrained_intra=0 bframes=3 b_pyramid=2 b_adapt=1 b_bias=0 direct=1 weightb=1 open_gop=0 weightp=2 keyint=250 keyint_min=25 scenecut=40 intra_refresh=0 rc_lookahead=40 rc=crf mbtree=1 crf=18.0 qcomp=0.60 qpmin=0 qpmax=69 qpstep=4 ip_ratio=1.40 aq=1:1.00
Output #0, mp4, to '/home/xinjie/Newton_Connection/Newton/phystwin_bridge/results/robot_rope_franka/candidates/20260401_062755_fixeddt_c01/validation/work/robot_rope_tabletop_hero_validation.mp4':
  Metadata:
    encoder         : Lavf60.16.100
  Stream #0:0: Video: h264 (avc1 / 0x31637661), yuv420p(tv, progressive), 1280x720, q=2-31, 30 fps, 15360 tbn
    Metadata:
      encoder         : Lavc60.31.102 libx264
    Side data:
      cpb: bitrate max/min/avg: 0/0/0 buffer size: 0 vbv_delay: N/A
frame=    0 fps=0.0 q=0.0 size=       0kB time=N/A bitrate=N/A speed=N/A    frame=   34 fps=0.0 q=24.0 size=       0kB time=00:00:01.06 bitrate=   0.4kbits/s speed=2.12x    [out#0/mp4 @ 0x60ee2f210c80] video:160kB audio:0kB subtitle:0kB other streams:0kB global headers:0kB muxing overhead: 1.400091%
frame=  119 fps=0.0 q=-1.0 Lsize=     162kB time=00:00:03.86 bitrate= 342.8kbits/s speed=6.14x    
[libx264 @ 0x60ee2f212480] frame I:1     Avg QP: 8.69  size: 85720
[libx264 @ 0x60ee2f212480] frame P:30    Avg QP:14.34  size:  1638
[libx264 @ 0x60ee2f212480] frame B:88    Avg QP:16.85  size:   317
[libx264 @ 0x60ee2f212480] consecutive B-frames:  0.8%  1.7%  0.0% 97.5%
[libx264 @ 0x60ee2f212480] mb I  I16..4: 53.0%  5.5% 41.5%
[libx264 @ 0x60ee2f212480] mb P  I16..4:  0.0%  0.0%  0.0%  P16..4:  1.1%  0.4%  0.4%  0.0%  0.0%    skip:98.0%
[libx264 @ 0x60ee2f212480] mb B  I16..4:  0.0%  0.0%  0.0%  B16..8:  1.1%  0.2%  0.1%  direct: 0.1%  skip:98.6%  L0:50.2% L1:40.5% BI: 9.3%
[libx264 @ 0x60ee2f212480] 8x8 transform intra:6.9% inter:16.2%
[libx264 @ 0x60ee2f212480] coded y,uvDC,uvAC intra: 31.6% 45.3% 42.9% inter: 0.4% 0.2% 0.1%
[libx264 @ 0x60ee2f212480] i16 v,h,dc,p: 83% 15%  1%  0%
[libx264 @ 0x60ee2f212480] i8 v,h,dc,ddl,ddr,vr,hd,vl,hu: 25% 32% 18%  2%  4%  6%  4%  0% 10%
[libx264 @ 0x60ee2f212480] i4 v,h,dc,ddl,ddr,vr,hd,vl,hu: 18% 30% 21%  2%  5%  3% 11%  1%  9%
[libx264 @ 0x60ee2f212480] i8c dc,h,v,p: 72% 20%  6%  2%
[libx264 @ 0x60ee2f212480] Weighted P-Frames: Y:0.0% UV:0.0%
[libx264 @ 0x60ee2f212480] ref P L0: 74.0%  8.8% 10.9%  6.3%
[libx264 @ 0x60ee2f212480] ref B L0: 55.2% 42.7%  2.2%
[libx264 @ 0x60ee2f212480] ref B L1: 93.8%  6.2%
[libx264 @ 0x60ee2f212480] kb/s:328.19
